Coordinates
version=1
nRows=16
nColumns=40
inDegrees=yes

Units are S.I. units (second, meters, Newtons, ...)
If the header above contains a line with 'inDegrees', this indicates whether rotational values are in degrees (yes) or radians (no).

endheader
time	pelvis_tilt	pelvis_list	pelvis_rotation	pelvis_tx	pelvis_ty	pelvis_tz	hip_flexion_r	hip_adduction_r	hip_rotation_r	knee_angle_r	knee_angle_r_beta	ankle_angle_r	subtalar_angle_r	mtp_angle_r	hip_flexion_l	hip_adduction_l	hip_rotation_l	knee_angle_l	knee_angle_l_beta	ankle_angle_l	subtalar_angle_l	mtp_angle_l	lumbar_extension	lumbar_bending	lumbar_rotation	arm_flex_r	arm_add_r	arm_rot_r	elbow_flex_r	pro_sup_r	wrist_flex_r	wrist_dev_r	arm_flex_l	arm_add_l	arm_rot_l	elbow_flex_l	pro_sup_l	wrist_flex_l	wrist_dev_l
      0.61500000	      2.45474338	     -3.96225907	     -7.19605752	      0.23385717	      0.90498264	      0.22054725	    -22.15439605	     -1.73787728	    -13.23988481	     13.68962623	      0.23892905	      3.73085221	     12.05456166	      0.00000000	     23.42851654	    -10.57512203	    -24.87842751	     10.87059911	      0.18972775	     -3.34386889	      8.37940490	      0.00000000	     -6.08418425	      1.24943773	     -0.87056535	     44.40127301	    -15.77134159	     44.40127301	     75.07924848	     44.97965354	      0.00000000	      0.00000000	     44.40127301	    -15.77134159	     44.40127301	     75.07924848	     44.97965354	      0.00000000	      0.00000000
      0.62000000	      2.60721506	     -3.58317726	     -7.22094551	      0.24168161	      0.90521450	      0.21980490	    -22.43952964	     -2.32251249	    -13.14528368	     14.12655634	      0.24655492	      2.62346627	     11.56720042	      0.00000000	     23.26116026	    -10.24773171	    -24.87571962	     11.75890521	      0.20523161	     -3.74363805	      7.60334990	      0.00000000	     -6.12604486	      0.79347681	     -0.55720785	     44.40165735	    -15.77052321	     44.40165735	     75.07908417	     44.97977072	      0.00000000	      0.00000000	     44.40165735	    -15.77052321	     44.40165735	     75.07908417	     44.97977072	      0.00000000	      0.00000000
      0.62500000	      2.75633603	     -3.11212395	     -7.40725957	      0.24955515	      0.90560107	      0.21952178	    -22.65391020	     -3.01551648	    -12.83129873	     14.63819942	      0.25548478	      1.51665156	     10.62276441	      0.00000000	     22.97964109	     -9.87470997	    -24.97072077	     12.49408993	      0.21806301	     -4.25515842	      6.74813511	      0.00000000	     -6.12700739	      0.15355421	     -0.03352851	     44.40271350	    -15.76827592	     44.40271350	     75.07863376	     44.98008986	      0.00000000	      0.00000000	     44.40271350	    -15.76827592	     44.40271350	     75.07863376	     44.98008986	      0.00000000	      0.00000000
      0.63000000	      2.91543267	     -2.72700311	     -7.38981795	      0.25735875	      0.90601991	      0.21862883	    -22.86826990	     -3.59137837	    -12.75133863	     15.16547457	      0.26468746	      0.20253589	      9.99843342	      0.00000000	     22.80712710	     -9.52982159	    -24.94446092	     13.37975398	      0.23352076	     -4.64519004	      6.07758055	      0.00000000	     -6.19152862	     -0.27783626	      0.26773604	     44.40308256	    -15.76749133	     44.40308256	     75.07847683	     44.98020024	      0.00000000	      0.00000000	     44.40308256	    -15.76749133	     44.40308256	     75.07847683	     44.98020024	      0.00000000	      0.00000000
      0.63500000	      3.05161752	     -2.32491168	     -7.38834223	      0.26522354	      0.90648926	      0.21779745	    -23.00463854	     -4.17976196	    -12.64834636	     15.77361082	      0.27530144	     -1.15215784	      9.15476787	      0.00000000	     22.63191253	     -9.17691060	    -24.92594712	     14.24722253	      0.24866094	     -5.01213769	      5.42529933	      0.00000000	     -6.19006485	     -0.74260354	      0.57741568	     44.40343545	    -15.76674138	     44.40343545	     75.07832696	     44.98030532	      0.00000000	      0.00000000	     44.40343545	    -15.76674138	     44.40343545	     75.07832696	     44.98030532	      0.00000000	      0.00000000
      0.64000000	      3.13694568	     -1.90018195	     -7.43677869	      0.27303107	      0.90700530	      0.21718054	    -23.01147885	     -4.76351164	    -12.41228045	     16.48676447	      0.28774832	     -2.54346812	      7.90229652	      0.00000000	     22.47887154	     -8.81986502	    -24.87625200	     15.04114856	      0.26251757	     -5.40764201	      4.79570683	      0.00000000	     -6.15098403	     -1.29317510	      0.97594366	     44.40413395	    -15.76525775	     44.40413395	     75.07803089	     44.98051185	      0.00000000	      0.00000000	     44.40413395	    -15.76525775	     44.40413395	     75.07803089	     44.98051185	      0.00000000	      0.00000000
      0.64500000	      3.27749172	     -1.54255261	     -7.38553727	      0.28087649	      0.90763956	      0.21620404	    -23.05034549	     -5.29847717	    -12.37809931	     17.23516901	      0.30081045	     -4.13940389	      6.94277516	      0.00000000	     22.28498215	     -8.48226412	    -24.77682933	     15.87396004	      0.27705287	     -5.67085345	      4.23486229	      0.00000000	     -6.16975247	     -1.69919405	      1.25380676	     44.40459212	    -15.76428523	     44.40459212	     75.07783712	     44.98064626	      0.00000000	      0.00000000	     44.40459212	    -15.76428523	     44.40459212	     75.07783712	     44.98064626	      0.00000000	      0.00000000
      0.65000000	      3.33018177	     -1.18180151	     -7.34054282	      0.28869850	      0.90822726	      0.21532596	    -22.91501806	     -5.79773249	    -12.24831771	     18.11867090	      0.31623046	     -5.71759519	      5.63746110	      0.00000000	     22.15249004	     -8.13405834	    -24.59440402	     16.62548313	      0.29016942	     -5.91949748	      3.69823555	      0.00000000	     -6.09680994	     -2.12108210	      1.53543225	     44.40541188	    -15.76254641	     44.40541188	     75.07749126	     44.98088463	      0.00000000	      0.00000000	     44.40541188	    -15.76254641	     44.40541188	     75.07749126	     44.98088463	      0.00000000	      0.00000000
      0.65500000	      3.47635301	     -0.86238591	     -7.20548622	      0.29655939	      0.90896907	      0.21416882	    -22.85186245	     -6.28365228	    -12.34028306	     19.04745841	      0.33244086	     -7.45802267	      4.65778646	      0.00000000	     21.93154927	     -7.78004396	    -24.41416795	     17.40817205	      0.30382992	     -6.00787674	      3.21797705	      0.00000000	     -6.13570828	     -2.47183489	      1.73057308	     44.40580505	    -15.76171301	     44.40580505	     75.07732576	     44.98099806	      0.00000000	      0.00000000	     44.40580505	    -15.76171301	     44.40580505	     75.07732576	     44.98099806	      0.00000000	      0.00000000
      0.66000000	      3.59584844	     -0.56918371	     -7.05067804	      0.30432532	      0.90973926	      0.21299160	    -22.75297137	     -6.70558895	    -12.26737941	     19.96705098	      0.34849078	     -8.99032596	      3.86287828	      0.00000000	     21.70085627	     -7.41477536	    -24.07020092	     18.10070269	      0.31591686	     -6.04398857	      2.91550196	      0.00000000	     -6.17402413	     -2.83702048	      1.91017998	     44.40603696	    -15.76122162	     44.40603696	     75.07722826	     44.98106466	      0.00000000	      0.00000000	     44.40603696	    -15.76122162	     44.40603696	     75.07722826	     44.98106466	      0.00000000	      0.00000000
      0.66500000	      3.55264522	     -0.15998703	     -6.89956584	      0.31219518	      0.91023089	      0.21176413	    -22.20339277	     -7.30903515	    -12.58647782	     21.41299282	      0.37372723	    -10.89182646	      1.96211835	      0.00000000	     21.63260064	     -6.92540354	    -23.87665228	     18.74390200	      0.32714280	     -6.12005575	      2.28760696	      0.00000000	     -5.94210357	     -3.23251503	      2.02964758	     44.40671118	    -15.75979363	     44.40671118	     75.07694525	     44.98125720	      0.00000000	      0.00000000	     44.40671118	    -15.75979363	     44.40671118	     75.07694525	     44.98125720	      0.00000000	      0.00000000
      0.67000000	      3.69455024	      0.10492044	     -6.73420660	      0.31998329	      0.91106760	      0.21043448	    -21.91246677	     -7.78648507	    -12.78099841	     22.70292763	      0.39624084	    -12.69987241	      0.95974734	      0.00000000	     21.31283012	     -6.53708459	    -23.61942359	     19.33891998	      0.33752783	     -5.93736872	      1.83153287	      0.00000000	     -5.99370237	     -3.52388524	      2.11085794	     44.40708098	    -15.75901086	     44.40708098	     75.07679033	     44.98136206	      0.00000000	      0.00000000	     44.40708098	    -15.75901086	     44.40708098	     75.07679033	     44.98136206	      0.00000000	      0.00000000
      0.67500000	      3.53595613	      0.60896988	     -6.56841675	      0.32774862	      0.91134504	      0.20918868	    -21.07853063	     -8.53327179	    -13.15384290	     24.44334040	      0.42661677	    -14.26443386	     -0.57018066	      0.00000000	     21.29179634	     -5.86374561	    -23.23697716	     19.76536577	      0.34497071	     -5.96264911	      1.15874919	      0.00000000	     -5.62717848	     -4.09267670	      2.17881850	     44.40822066	    -15.75660033	     44.40822066	     75.07631418	     44.98168208	      0.00000000	      0.00000000	     44.40822066	    -15.75660033	     44.40822066	     75.07631418	     44.98168208	      0.00000000	      0.00000000
      0.68000000	      3.60754305	      1.02211233	     -6.35076767	      0.33546624	      0.91204361	      0.20773850	    -20.52814134	     -9.21875426	    -13.57977448	     26.07296184	      0.45505903	    -16.00604519	     -1.82622577	      0.00000000	     20.99883219	     -5.24943602	    -22.97038178	     20.21112988	      0.35275076	     -5.76950466	      0.74049259	      0.00000000	     -5.58588605	     -4.51024231	      2.25067190	     44.40888993	    -15.75518624	     44.40888993	     75.07603557	     44.98186763	      0.00000000	      0.00000000	     44.40888993	    -15.75518624	     44.40888993	     75.07603557	     44.98186763	      0.00000000	      0.00000000
      0.68500000	      3.68022444	      1.39999583	     -6.19525142	      0.34310107	      0.91273579	      0.20640758	    -19.89753067	     -9.90899586	    -13.91755779	     27.81803651	      0.48551633	    -17.68233372	     -3.01019673	      0.00000000	     20.64313127	     -4.67182699	    -22.74548636	     20.55461125	      0.35874564	     -5.47991209	      0.30810386	      0.00000000	     -5.53265295	     -4.91412803	      2.30619386	     44.40941809	    -15.75407102	     44.40941809	     75.07581618	     44.98201291	      0.00000000	      0.00000000	     44.40941809	    -15.75407102	     44.40941809	     75.07581618	     44.98201291	      0.00000000	      0.00000000
      0.69000000	      3.44685821	      2.67904757	     -6.16198212	      0.35106293	      0.91249644	      0.20545397	    -18.55512829	    -11.85697119	    -14.94962954	     30.46356776	      0.53168956	    -18.56390334	     -3.64795285	      0.00000000	     20.46460339	     -3.07494560	    -22.65556804	     20.38438233	      0.35577459	     -5.59176673	     -0.67631738	      0.00000000	     -4.88692209	     -6.36843275	      2.68999198	     44.41253921	    -15.74749384	     44.41253921	     75.07452861	     44.98285050	      0.00000000	      0.00000000	     44.41253921	    -15.74749384	     44.41253921	     75.07452861	     44.98285050	      0.00000000	      0.00000000
